<svg xmlns="http://www.w3.org/2000/svg"><symbol fill="none" id="sensei-sprite-ai-icon" viewBox="0 0 24 24"><path fill-rule="evenodd" clip-rule="evenodd" d="M16.5 9.25a2.25 2.25 0 1 1-4.5 0 2.25 2.25 0 0 1 4.5 0ZM10 13.5a1.5 1.5 0 1 1-3 0 1.5 1.5 0 0 1 3 0Zm4.75 3a.75.75 0 1 0 0-1.5.75.75 0 0 0 0 1.5Z" fill="#00594F"/></symbol><symbol id="sensei-sprite-alert" viewBox="0 0 24 24"><path d="M13 7h-2v6h2V7zm0 8h-2v2h2v-2z"/><path d="M12 4.75a7.25 7.25 0 1 0 0 14.5 7.25 7.25 0 0 0 0-14.5zM3.25 12a8.75 8.75 0 1 1 17.5 0 8.75 8.75 0 0 1-17.5 0z"/></symbol><symbol id="sensei-sprite-arrow-right" viewBox="0 0 17 12"><path d="m10.53 11.53-1.06-1.06 3.72-3.72H0v-1.5h13.19L9.47 1.53 10.53.47 16.06 6l-5.53 5.53Z" fill="currentColor"/></symbol><symbol id="sensei-sprite-buttons" viewBox="0 0 24 24"><path d="M17 3H7c-1.1 0-2 .9-2 2v4c0 1.1.9 2 2 2h10c1.1 0 2-.9 2-2V5c0-1.1-.9-2-2-2zm.5 6c0 .3-.2.5-.5.5H7c-.3 0-.5-.2-.5-.5V5c0-.3.2-.5.5-.5h10c.3 0 .5.2.5.5v4zm-8-1.2h5V6.2h-5v1.6zM17 13H7c-1.1 0-2 .9-2 2v4c0 1.1.9 2 2 2h10c1.1 0 2-.9 2-2v-4c0-1.1-.9-2-2-2zm.5 6c0 .3-.2.5-.5.5H7c-.3 0-.5-.2-.5-.5v-4c0-.3.2-.5.5-.5h10c.3 0 .5.2.5.5v4zm-8-1.2h5v-1.5h-5v1.5z" fill="currentColor"/></symbol><symbol fill="none" id="sensei-sprite-check-circle" viewBox="0 0 24 24"><path fill-rule="evenodd" clip-rule="evenodd" d="M12 23.486c6.343 0 11.486-5.143 11.486-11.486C23.486 5.657 18.343.514 12 .514 5.657.514.514 5.657.514 12c0 6.343 5.143 11.486 11.486 11.486ZM12 24c6.627 0 12-5.373 12-12S18.627 0 12 0 0 5.373 0 12s5.373 12 12 12Z" fill="currentColor"/><path fill-rule="evenodd" clip-rule="evenodd" d="m15.77 8.862-4.91 6.602-3.003-2.233.41-.55 2.452 1.824 4.5-6.052.55.409Z" fill="currentColor"/></symbol><symbol fill="none" id="sensei-sprite-check-filled-circle" viewBox="0 0 24 24"><path fill-rule="evenodd" clip-rule="evenodd" d="M12 24c6.628 0 12-5.372 12-12 0-6.627-5.372-12-12-12C5.373 0 0 5.373 0 12c0 6.628 5.373 12 12 12Zm-1.536-5.924 8.647-11.629-1.204-.895-8.2 11.027-4.411-3.28-.895 1.204 5.014 3.728.602.447.447-.602Z" fill="currentColor"/></symbol><symbol id="sensei-sprite-checked-white" viewBox="0 0 16 12"><path d="M5.75 11.56.72 6.53l1.06-1.06 3.97 3.97L14.22.97l1.06 1.06" fill="#fff"/></symbol><symbol id="sensei-sprite-checked" viewBox="0 0 24 24"><path d="M9 18.6 3.5 13l1-1L9 16.4l9.5-9.9 1 1z" fill="currentColor"/></symbol><symbol fill="none" id="sensei-sprite-chevron-left" viewBox="0 0 24 24"><path d="m14 7-5 5.5 5 5.5" stroke="currentColor" stroke-width="1.5"/></symbol><symbol fill="none" id="sensei-sprite-chevron-right" viewBox="0 0 24 24"><path d="m10 7 5 5.5-5 5.5" stroke="currentColor" stroke-width="1.5"/></symbol><symbol id="sensei-sprite-chevron-up" viewBox="0 0 24 24"><path d="M6.5 12.4 12 8l5.5 4.4-.9 1.2L12 10l-4.5 3.6-1-1.2z" fill="currentColor"/></symbol><symbol fill="none" id="sensei-sprite-circle" viewBox="0 0 24 24"><path fill-rule="evenodd" clip-rule="evenodd" d="M12 1.5C6.201 1.5 1.5 6.201 1.5 12S6.201 22.5 12 22.5 22.5 17.799 22.5 12 17.799 1.5 12 1.5ZM0 12C0 5.373 5.373 0 12 0s12 5.373 12 12-5.373 12-12 12S0 18.627 0 12Z" fill="currentColor"/></symbol><symbol fill="none" id="sensei-sprite-close" viewBox="0 0 24 24"><path d="M1 23 22.364 1M1.636 1 23 23 1.636 1Z" stroke="currentColor" stroke-width="1.5"/></symbol><symbol id="sensei-sprite-cog" viewBox="0 0 24 24"><path fill-rule="evenodd" clip-rule="evenodd" d="M11.929 18.5a6 6 0 1 0 0-12 6 6 0 0 0 0 12Zm0-3a3 3 0 1 0 0-6 3 3 0 0 0 0 6Z" fill="currentColor"/><path fill-rule="evenodd" clip-rule="evenodd" d="M11.276 4.5a1 1 0 0 0-.987.836L9.93 7.5h4l-.361-2.164a1 1 0 0 0-.986-.836h-1.306Zm1.306 16a1 1 0 0 0 .986-.836l.36-2.164h-4l.361 2.164a1 1 0 0 0 .987.836h1.306ZM18.53 7.934a1 1 0 0 0-1.217-.436l-2.055.77 2 3.464 1.694-1.395a1 1 0 0 0 .23-1.272l-.652-1.13ZM5.326 17.065a1 1 0 0 0 1.217.436l2.055-.77-2-3.463-1.694 1.394a1 1 0 0 0-.23 1.272l.652 1.131Zm-.651-7.999a1 1 0 0 0 .23 1.272l1.694 1.394 2-3.464-2.055-.77a1 1 0 0 0-1.217.437l-.652 1.13Zm14.509 6.869a1 1 0 0 0-.23-1.272l-1.695-1.395-2 3.464 2.055.77a1 1 0 0 0 1.217-.436l.653-1.131Z" fill="currentColor"/></symbol><symbol id="sensei-sprite-conditional-content" viewBox="0 0 24 24"><path d="M5.5 18V6a.5.5 0 0 1 .5-.5h4.5V4H6a2 2 0 0 0-2 2v12a2 2 0 0 0 2 2h4.5v-1.5H6a.5.5 0 0 1-.5-.5zm11-14v1.5H15V4h1.5zM20 6a2 2 0 0 0-2-2v1.5a.5.5 0 0 1 .5.5H20zm-1.5 10.5v-2H20v2h-1.5zM20 13h-1.5v-2H20v2zm-2 5.5a.5.5 0 0 0 .5-.5H20a2 2 0 0 1-2 2v-1.5zM16.5 20v-1.5H15V20h1.5zm2-10.5H20v-2h-1.5v2zm-5-5.5v1.5H12V4h1.5zm0 14.5V20H12v-1.5h1.5z"/></symbol><symbol fill="none" id="sensei-sprite-course-list-filter" viewBox="0 0 24 24"><path fill-rule="evenodd" clip-rule="evenodd" d="M15 4h-3v1.5h3V4ZM6 18.5h3a.5.5 0 0 0 .5-.5v-7a.5.5 0 0 0-.5-.5H6a.5.5 0 0 0-.5.5v7a.5.5 0 0 0 .5.5ZM9 20H6a2 2 0 0 1-2-2v-7a2 2 0 0 1 2-2h3a2 2 0 0 1 2 2v7a2 2 0 0 1-2 2Zm6-1.5h3a.5.5 0 0 0 .5-.5v-7a.5.5 0 0 0-.5-.5h-3a.5.5 0 0 0-.5.5v7a.5.5 0 0 0 .5.5Zm3 1.5h-3a2 2 0 0 1-2-2v-7a2 2 0 0 1 2-2h3a2 2 0 0 1 2 2v7a2 2 0 0 1-2 2ZM17 4h3v1.5h-3V4Zm-7 0H4v1.5h6V4Z" fill="#1E1E1E"/></symbol><symbol fill="none" id="sensei-sprite-course-list" viewBox="0 0 24 24"><path fill-rule="evenodd" clip-rule="evenodd" d="M9 9.5H6a.5.5 0 0 1-.5-.5V6a.5.5 0 0 1 .5-.5h3a.5.5 0 0 1 .5.5v3a.5.5 0 0 1-.5.5ZM6 11h3a2 2 0 0 0 2-2V6a2 2 0 0 0-2-2H6a2 2 0 0 0-2 2v3a2 2 0 0 0 2 2Zm12-1.5h-3a.5.5 0 0 1-.5-.5V6a.5.5 0 0 1 .5-.5h3a.5.5 0 0 1 .5.5v3a.5.5 0 0 1-.5.5ZM15 11h3a2 2 0 0 0 2-2V6a2 2 0 0 0-2-2h-3a2 2 0 0 0-2 2v3a2 2 0 0 0 2 2ZM4 14.5h7V16H4v-1.5Zm16 0h-7V16h7v-1.5Zm-16 4h5V20H4v-1.5Zm14 0h-5V20h5v-1.5Z" fill="#1E1E1E"/></symbol><symbol fill="none" id="sensei-sprite-course" viewBox="0 0 24 24"><path fill-rule="evenodd" clip-rule="evenodd" d="M19 4.5H5a.5.5 0 0 0-.5.5v9a.5.5 0 0 0 .5.5h14a.5.5 0 0 0 .5-.5V5a.5.5 0 0 0-.5-.5ZM5 3a2 2 0 0 0-2 2v9a2 2 0 0 0 2 2h4.511l-1.03 2.75H7a.75.75 0 0 0 0 1.5h10a.75.75 0 0 0 0-1.5h-1.48L14.489 16H19a2 2 0 0 0 2-2V5a2 2 0 0 0-2-2H5Zm5 3.5 5 3-5 3v-6Zm3.918 12.25h-3.836l.938-2.5h1.96l.938 2.5Z" fill="#1E1E1E"/></symbol><symbol fill="none" id="sensei-sprite-double-chevron-right" viewBox="0 0 24 24"><path fill-rule="evenodd" clip-rule="evenodd" d="M13.148 23.875 24 11.938 13.148 0 10.94 2.006l9.029 9.932-9.03 9.931 2.208 2.006Z" fill="currentColor"/><path fill-rule="evenodd" clip-rule="evenodd" d="m3.207 23.875 10.852-11.937L3.207 0 1 2.006l9.029 9.932L1 21.869l2.207 2.006Z" fill="currentColor"/></symbol><symbol fill="none" id="sensei-sprite-external-link" viewBox="0 0 16 16"><path d="M6.833 3.333H4.667c-.737 0-1.334.597-1.334 1.334v6.667c0 .736.597 1.333 1.334 1.333h6.666c.737 0 1.334-.597 1.334-1.333V8.908M9.93 2.524l3.698-.016m0 0-.031 3.683m.031-3.683-5.12 5.12" stroke="currentColor"/></symbol><symbol fill="none" id="sensei-sprite-eye" viewBox="0 0 24 24"><path fill-rule="evenodd" d="M0 12.5c1.887-5.268 6.546-9 12-9s10.113 3.732 12 9c-1.887 5.268-6.546 9-12 9s-10.113-3.732-12-9zm21.623 0c-1.8-4.044-5.487-6.6-9.622-6.6s-7.822 2.556-9.622 6.6c1.8 4.044 5.487 6.6 9.623 6.6s7.823-2.556 9.622-6.6zM12 9.5c1.506 0 2.727 1.344 2.727 3s-1.223 3-2.727 3-2.727-1.344-2.727-3 1.223-3 2.727-3zm-4.909 3c0-2.976 2.204-5.4 4.91-5.4s4.91 2.424 4.91 5.4-2.204 5.4-4.91 5.4-4.909-2.424-4.909-5.4z" fill="currentColor"/></symbol><symbol fill="none" id="sensei-sprite-facebook-circle" viewBox="0 0 24 24"><path d="M12 0C5.373 0 0 5.373 0 12s5.373 12 12 12 12-5.373 12-12S18.627 0 12 0Zm3 8h-1.35c-.538 0-.65.221-.65.778V10h2l-.209 2H13v7h-3v-7H8v-2h2V7.692C10 5.923 10.931 5 13.029 5H15v3Z" fill="currentColor"/></symbol><symbol fill="none" id="sensei-sprite-half-filled-circle" viewBox="0 0 24 24"><path fill-rule="evenodd" d="M12 1.5C6.201 1.5 1.5 6.201 1.5 12S6.201 22.5 12 22.5 22.5 17.799 22.5 12 17.799 1.5 12 1.5zM0 12C0 5.373 5.373 0 12 0s12 5.373 12 12-5.373 12-12 12S0 18.627 0 12z" fill="currentColor"/><path d="M0 12a12 12 0 0 0 12 12 12 12 0 0 0 12-12" fill="currentColor"/></symbol><symbol fill="none" id="sensei-sprite-learner-courses" viewBox="0 0 24 24"><path stroke="currentColor" fill="transparent" stroke-width="1.5" d="M19.25 14.75v-10H4.75v10z"/><path fill="currentColor" fill-rule="evenodd" clip-rule="evenodd" d="M8 12h8V8H8v4Zm-.779 7.862 3.558-4.991L9.558 14 6 18.99l1.221.872Zm9.337 0L13 14.87l1.222-.87 3.557 4.99-1.221.872Z"/></symbol><symbol id="sensei-sprite-lesson-properties" viewBox="0 0 24 24"><path d="M16.181 17.381a7.61 7.61 0 0 1-2.13.133L15.778 20H18l-1.819-2.619zm-5.479-.953a7.712 7.712 0 0 1-2.12-1.928H5.5v-9h2.759A7.793 7.793 0 0 1 9.523 4H4v12h4.778L6 20h2.222l2.48-3.572zm4.839-7.484h-1.5v3.997h1.5V8.944zm0-1h-1.5V6.55h1.5v1.395z"/><path d="M20.79 9.768c0 3.425-2.714 6.269-6.145 6.269-3.43 0-6.145-2.844-6.145-6.269 0-3.424 2.714-6.268 6.145-6.268 3.43 0 6.145 2.844 6.145 6.268zm-6.145 4.769c2.565 0 4.645-2.135 4.645-4.769C19.29 7.135 17.21 5 14.645 5 12.08 5 10 7.135 10 9.768c0 2.634 2.08 4.769 4.645 4.769z"/></symbol><symbol id="sensei-sprite-lesson" viewBox="0 0 24 24"><path d="M4 4v12h4.777L6 20h2.223L11 16h2l2.777 4H18l-2.777-4H20V4zm1.5 1.5h13v9h-13zM9 8v1.5h6V8zm0 3v1.5h6V11z" clip-rule="evenodd" fill-rule="evenodd"/></symbol><symbol fill="none" id="sensei-sprite-lock" viewBox="0 0 24 24"><path fill-rule="evenodd" clip-rule="evenodd" d="M19.125 8h-1.188V5.714C17.938 2.56 15.277 0 12 0S6.062 2.56 6.062 5.714V8H4.875C3.569 8 2.5 9.029 2.5 10.286v11.428C2.5 22.971 3.569 24 4.875 24h14.25c1.306 0 2.375-1.029 2.375-2.286V10.286C21.5 9.029 20.431 8 19.125 8ZM8.438 5.714c0-1.897 1.59-3.428 3.562-3.428 1.971 0 3.563 1.531 3.563 3.428V8H8.438V5.714Zm-3.563 16h14.25V10.286H4.875v11.428Z" fill="currentColor"/></symbol><symbol fill="none" id="sensei-sprite-logo-tree" viewBox="0 0 24 24"><circle cx="12" cy="12" r="12" fill="#43AF99"/><path fill-rule="evenodd" clip-rule="evenodd" d="M9.835 15.38c.3-.23.179-.474.6-.563-.02.194.146.391.251.563-.109-.367-.002-.536.08-.72.347-.785-.662-1.293-1.35-1.418.235-.164.399-.327.694-.355a2.377 2.377 0 0 0-1.058.23c-1.112.531-1.993-.523-1.41-1.48.31-.51.664-.519.982-.865.077.178.103.372.075.564a.919.919 0 0 0 .049-.664c-.104-.336-.4-.338-.456-.821-.012-.101-.105.056-.263-.077-.038-.032-.113-.09-.163-.064-.085.044-.18.008-.232.034-.083.041-.109-.045-.2.016-.16.107-.178-.013-.332.005-.193.023-.32.261-.43.144-.102-.108-.206.075-.28.075-.05 0-.311.317-.426.028-.086-.216-.28.206-.382.063-.033-.046-.123.108-.18-.044-.014-.035 0-.078-.108-.027-.215.099-.138-.06-.207-.144-.083-.103-.113-.103-.068-.27.036-.133-.019-.33.2-.364.055-.008.107-.005.184-.148.096-.18.231-.093.207-.175-.036-.119.143-.28.226-.355.11-.103.254-.252.306-.396a.63.63 0 0 1 .102-.141c.081-.084.105-.003.227-.045.088-.03.02.053.106-.07.028-.038.105-.001.19-.039.259-.112.283-.11.347-.371.012-.05.025-.088.08-.083.109.01.134-.052.2-.05.061.001.083-.03.115-.068.18-.216.277-.055.357-.072.06-.012.022-.142.184-.102.23.057.155-.05.303-.015.174.041.186.19.306.225.143.042.211.198.307.196.337-.005.235.23.448.323-.16-.161.012-.421-.352-.455-.08-.007-.11-.127-.23-.183-.146-.067-.13-.21-.394-.27.068-.04.089.005.13-.073.058-.11.09-.046.113-.113.02-.063.006-.099.165-.155.165-.06.325-.195.472-.188.13.006.185-.08.177-.19-.008-.112-.033-.267.222-.22.153.029.15.003.15-.1-.002-.102.04-.165.174-.16.098.002.194-.003.231-.117.03-.091.207-.114.302-.148.317-.114.361.05.447-.095.07-.117.196-.317.337-.175.028.029.054.05.15-.056.08-.088.27-.2.337-.048.027.06.086.121.138.044a.08.08 0 0 1 .053-.039c.05-.01.079-.024.104-.036.218-.101.314-.095.213.125-.142.316.792-.192.532.151-.095.126.538.197.63.254.05.032.048.059.144.077.271.05.267.026.284.243.007.098.107.043.107.168 0 .535.472.266.549.399.012.022.032.042.079.042.149 0 .157-.03.224.089.027.047.05.072.127.096.12.037.112.05.068.138-.054.104.03.102.138.112.1.01.148.062.216.138.11.122.284.156.43.227.084.04.002.14.143.243.104.077.156.066.016.165-.59.418.22.305.446.694.051.087.118.195.216.295.225.23.1.293.221.437.07.083.015.063.13.137.272.175-.105.292-.319.212-.097-.035-.166-.085-.147-.025.016.049-.01.083-.052.12-.125.112.123.068.181.06.181-.025.664-.076.66.093-.005.22.136.27.25.284.185.024.238.057.34.226.092.152.145.07.288.205.097.093.217.258.02.282-.047.005-.099 0-.12.017a.411.411 0 0 1-.14.066c-.295.09.14.136.246.113.093-.02.209-.05.3-.027.057.015.062.08.244.107.06.01.036.099.006.16-.104.214.191.1.16.263-.017.093.11.245-.067.248-.057.001-.117-.015-.115.034.004.105-.165-.03-.317.115-.056.054-.19.092-.272-.009-.032-.038-.07-.069-.218-.023-.144.046-.242.204-.306-.04-.017-.064-.05-.065-.142-.097-.125-.043-.114-.258-.297-.12a.24.24 0 0 1-.214.039c-.144-.037-.303.012-.317-.096-.021-.179-.191-.305-.377-.296-.147.008-.278.034-.355-.137.057.195.207.208.382.208.144 0 .23.075.255.225.045.265.204.099.406.223.1.06.17.159.21.273.042.118.37-.024.282.258-.037.122-.107.168-.242.266-.4.294-.5.004-.618.239-.062.121-.063.031-.196.09-.22.098-.36-.128-.522-.045-.182.094-.168-.08-.352.037-.152.097-.308-.074-.38.192-.063.227-.322.232-.44.11-.189-.194-.132.229-.362.054-.123-.091-.213.043-.392.045-.33.005-.489-.282-.65-.107-.192.206-.331-.032-.334-.242-.003-.216-.777-.144-1.185-.256-.225-.062-.932.013-.702-.35-.372.39.456.366.682.455.136.053.245.095.377.114.13.296.214.617.227 1.007a2.08 2.08 0 0 0 .028-.649c-.043-.383.242.19.276.272.184.45-.022 1.278-.488 1.526a2.957 2.957 0 0 0-.562-.99c.256.392.616 1.192.327 1.65a1.023 1.023 0 0 1-.55-.483c.077.333.413.702.818.58.707-.213.704.233 1.641.307.682.111 1.654 0 2.118.037.254.02 1.32.197 1.315.465-.02 1.105-.438 1.164-1.539 1.268-.64.06-1.134.085-1.823.11-1.54.058-3.391.06-4.868 0-.724-.03-1.072-.036-1.841-.137-.769-.1-1.19-.363-1.178-1.187.005-.304.905-.594 1.2-.628.347-.039.901.005 1.405-.116.527-.127.747-.21 1.135-.508Zm5.347-6.052c-.167-.042-.051-.138-.339-.014-.17.073-.194-.13-.365-.094-.172.036-.242-.125-.499-.166-.318-.05-.088-.133-.592-.032-.097.02-.179-.09-.481-.052-.355.046-.23.084-.445-.115-.272-.251-.488-.082-.767-.184.216.166.368.019.622.221-.242.138-.523.802-.962.844.478.107.709.354 1.148.413.504.068.882.118 1.151.531.301.463.44.196.874.168.275-.017.282-.185.328-.362.063-.245.126-.256.31-.289.213-.037.163-.092.107-.156-.15-.172.019-.207.146-.244.222-.064.042-.075.042-.166-.278-.09-.063-.217.092-.273.169.105.242.087.317.073.109-.021.181.03.273-.028-.135.014-.163-.037-.278-.02-.051.007-.112.01-.219-.054-.18-.107-.27.048-.463 0Zm-2.28 1.64-1.09-.545c-1.316-.657-1.915.313-2.337 1.376l-.766.73c.549-.338.996-.714 1.574-.71.092 0 1.516.484 1.286-.092-.04-.104.09-.052.125-.201.04-.17.055-.141.195-.033.089.069.211.113.174-.048-.017-.072-.04-.137.28-.004.15.062.095-.064.303-.09.29-.034.228-.31.364-.349.076-.022.152.058.295-.077.05-.046.11-.089.232-.057-.143-.073-.22-.014-.292.03-.146.089-.204-.037-.343.07Zm-2.23-1.923c.16-.02.32-.036.482-.046a.13.13 0 0 0 .074-.06.111.111 0 0 0 .007-.09.268.268 0 0 1 .147-.206l-.002-.003c-.258.001-.466.1-.73.211-.052.022-.024.111-.118.213a.26.26 0 0 1-.201.235.136.136 0 0 0-.09.046.113.113 0 0 0-.026.092.252.252 0 0 1-.277.061c-.2-.077-.35-.065-.448.036a.39.39 0 0 1 .398.014c.134.066.3.031.39-.082a.132.132 0 0 1 .126-.098.421.421 0 0 0 .268-.323Z" fill="#fff"/></symbol><symbol fill="none" id="sensei-sprite-mailpoet-logo" viewBox="0 0 20 20"><path d="M5.97 10.916c.369 0 .621-.084.758-.242a.842.842 0 0 0 .21-.569v-4.81l1.79 4.747c.078.22.212.417.39.569.168.136.42.21.757.21.216.002.43-.048.621-.147a.885.885 0 0 0 .411-.527l1.905-5.263v5.18a.898.898 0 0 0 .221.641c.148.148.39.232.727.232.368 0 .62-.084.758-.242a.842.842 0 0 0 .21-.569V2.453a.787.787 0 0 0-.347-.695c-.221-.147-.527-.22-.906-.22a2.032 2.032 0 0 0-.99.21 1.224 1.224 0 0 0-.536.715L9.886 8.6 7.728 2.421a1.305 1.305 0 0 0-.474-.652c-.22-.158-.526-.232-.926-.232a1.738 1.738 0 0 0-.937.221c-.242.158-.368.41-.368.758v7.526c0 .295.074.505.21.653.158.147.39.22.737.22Zm11.715 2.894-.253-.2a.778.778 0 0 0-.99.032c-.368.31-.834.481-1.315.484h-2.253a3.903 3.903 0 0 0-2.768 1.148l-.116.126-.116-.116a3.92 3.92 0 0 0-2.768-1.147H4.843a2.062 2.062 0 0 1-1.305-.484.767.767 0 0 0-.99-.032l-.252.2a.782.782 0 0 0-.237.908.75.75 0 0 0 .195.27 3.924 3.924 0 0 0 2.589 1h2.274a2.063 2.063 0 0 1 1.989 1.517v.02c.01.074.126.464.895.464.768 0 .884-.39.894-.463v-.021A2.063 2.063 0 0 1 12.885 16h2.274a3.924 3.924 0 0 0 2.589-1 .78.78 0 0 0 .252-.6.828.828 0 0 0-.315-.59Z" fill="#FF5301"/></symbol><symbol id="sensei-sprite-menu" viewBox="0 0 24 24"><path d="M5 5v1.5h14V5H5zm0 7.8h14v-1.5H5v1.5zM5 19h14v-1.5H5V19z" fill="currentColor"/></symbol><symbol id="sensei-sprite-module" viewBox="0 0 24 24"><path fill-rule="evenodd" clip-rule="evenodd" d="M18.5 5.5v9h-13v-9h13zM20 16H4V4h16v12z"/><path fill-rule="evenodd" clip-rule="evenodd" d="M9 12h6V8H9v4zm-3 8h2.222L11 16H8.778L6 20zm12 0h-2.222L13 16h2.222L18 20z"/></symbol><symbol id="sensei-sprite-progress" viewBox="0 0 24 24"><rect x="2.75" y="7.75" width="18.5" height="6.5" rx="3.25" stroke="currentColor" stroke-width="1.5" fill="none"/><path d="M6 7.75h10.7l-6.5 6.5H6c-1.8 0-3.25-1.45-3.25-3.25S4.2 7.75 6 7.75Z"/></symbol><symbol id="sensei-sprite-question" viewBox="0 0 24 24"><path d="M12.408 7.277A2.999 2.999 0 0 0 9 10.25h1.5c0-.677.375-1.14.886-1.37.512-.228 1.11-.198 1.614.253.504.45.6 1.04.43 1.574-.171.534-.592.958-1.264 1.033l.021-.002a1.034 1.034 0 0 0-.937.99V14h1.5v-.95c1.02-.28 1.817-.979 2.107-1.888a2.998 2.998 0 0 0-2.449-3.885z"/><path d="M6 4c-1.096 0-2 .904-2 2v12c0 1.096.904 2 2 2h12c1.096 0 2-.904 2-2V6c0-1.096-.904-2-2-2H6zm0 1.5h12c.284 0 .5.216.5.5v12a.49.49 0 0 1-.5.5H6a.49.49 0 0 1-.5-.5V6c0-.284.216-.5.5-.5zm5.25 9.5v1.5h1.5V15h-1.5z"/></symbol><symbol fill="none" id="sensei-sprite-quiz" viewBox="0 0 24 24"><path fill="transparent" stroke="currentColor" stroke-width="1.5" d="M21 8v11c0 1.105-.894 2-1.999 2H6"/><rect x="3.75" y="3.75" width="13.5" height="13.5" rx=".875" stroke="currentColor" stroke-width="1.5" fill="transparent"/><path fill="currentColor" fill-rule="evenodd" clip-rule="evenodd" d="M12 9a1.5 1.5 0 0 0-3 0H7.5a3 3 0 1 1 3.75 2.905v.845h-1.5V11.5c0-.57.452-.958.917-1.01A1.5 1.5 0 0 0 12 9Zm-2.25 4.75v1.5h1.5v-1.5h-1.5Z"/></symbol><symbol fill="none" id="sensei-sprite-sensei-logo-type" viewBox="0 0 24 6"><path d="M1.31 6c.903 0 1.427-.49 1.427-1.257 0-.972-.864-1.25-1.488-1.461-.34-.106-.601-.188-.601-.36 0-.285.293-.481.732-.481.501 0 .91.18 1.233.465.008-.057.008-.114.008-.171-.015-.547-.462-.85-1.226-.85C.585 1.886 0 2.409 0 3.2c0 .963.894 1.265 1.519 1.478.339.114.601.204.601.359 0 .27-.324.449-.763.449-.47 0-.902-.172-1.303-.506v.106C.062 5.706.532 6 1.311 6Zm4.701 0c.432 0 .71-.082.933-.229a.93.93 0 0 0 .378-.571c-.277.139-.555.196-.91.196-.84 0-1.364-.53-1.364-1.461v-.188H7.43c.008-.065.008-.139.008-.204 0-1.004-.594-1.657-1.55-1.657-1.071 0-1.866.898-1.866 2.13 0 1.282.78 1.984 1.99 1.984Zm-.948-2.506c.031-.523.285-1.11.771-1.11.494 0 .625.506.632 1.012l-1.403.098Zm5.63 2.441h1.874c-.37-.172-.463-.319-.463-.645V3.102c0-.743-.393-1.216-1.08-1.216-.623 0-1.024.31-1.202 1.06V1.789l-1.295.44c.116.254.231.499.355.743V5.25c0 .327-.124.514-.463.686h1.866c-.37-.172-.463-.36-.463-.686V2.971c.193-.236.409-.35.702-.35.385 0 .632.228.632.685V5.29c0 .326-.123.473-.463.645Zm4.31.065c.902 0 1.426-.49 1.426-1.257 0-.972-.864-1.25-1.488-1.461-.34-.106-.601-.188-.601-.36 0-.285.293-.481.732-.481.501 0 .91.18 1.233.465.008-.057.008-.114.008-.171-.015-.547-.462-.85-1.226-.85-.81 0-1.395.523-1.395 1.315 0 .963.894 1.265 1.519 1.478.339.114.601.204.601.359 0 .27-.324.449-.763.449-.47 0-.902-.172-1.303-.506v.106c.008.62.478.914 1.257.914Zm4.7 0c.432 0 .71-.082.933-.229a.93.93 0 0 0 .378-.571c-.277.139-.555.196-.91.196-.84 0-1.364-.53-1.364-1.461v-.188h2.382c.008-.065.008-.139.008-.204 0-1.004-.594-1.657-1.55-1.657-1.071 0-1.865.898-1.865 2.13 0 1.282.778 1.984 1.988 1.984Zm-.948-2.506c.031-.523.286-1.11.771-1.11.494 0 .625.506.632 1.012l-1.403.098Zm4.243-2.31c.293 0 .57-.27.57-.588 0-.318-.285-.596-.57-.596-.324 0-.57.278-.57.596 0 .31.285.588.57.588Zm-.864 4.75H24c-.37-.17-.463-.358-.463-.685V1.788l-1.295.44c.116.254.232.499.355.743V5.25c0 .327-.123.514-.463.686Z" fill="currentColor"/></symbol><symbol fill="none" id="sensei-sprite-sensei" viewBox="0 0 24 24"><path d="M12 24a12 12 0 1 0 0-24 12 12 0 0 0 0 24Zm-.1-4.723c-2.849 0-4.517-1.072-4.575-3.011 0-.203 0-.405.029-.608 1.208 1.013 2.733 1.65 4.603 1.65 1.64 0 2.733-.695 2.733-1.708 0-.608-.978-.897-2.244-1.274-2.33-.752-5.553-1.736-5.553-5.181 0-2.721 1.957-4.458 5.323-4.458 2.905 0 4.66 1.042 4.689 3.242v.376c-1.496-1.187-3.107-1.794-4.862-1.794-1.64 0-2.848.636-2.848 1.592 0 .55.978.868 2.244 1.273 2.33.753 5.667 1.824 5.667 5.24 0 2.808-2.186 4.66-5.207 4.66Z" fill="currentColor"/></symbol><symbol fill="none" id="sensei-sprite-tumblr-circle" viewBox="0 0 24 24"><path d="M12 0C5.373 0 0 5.373 0 12s5.373 12 12 12 12-5.373 12-12S18.627 0 12 0Zm2.737 15.722.581 1.721-.014.062c-.438.421-1.49.733-2.35.748l-.098.001c-2.828 0-3.313-2.16-3.313-3.435v-4.106l-.059-.059H7.862l-.059-.059-.014-1.786.037-.054c1.462-.569 2.278-1.514 2.492-3.263.013-.097.094-.1.094-.1h2.011l.059.059v2.81l.059.059h2.219l.058.059v2.217l-.058.059h-2.229l-.057.059v3.911c.014.839.417 1.265 1.205 1.265.316 0 .65-.074.982-.201l.076.033Z" fill="currentColor"/></symbol><symbol fill="none" id="sensei-sprite-twitter-circle" viewBox="0 0 24 24"><path d="M12 0C5.373 0 0 5.373 0 12s5.373 12 12 12 12-5.373 12-12S18.627 0 12 0Zm6.066 9.645c.183 4.04-2.83 8.544-8.164 8.544A8.127 8.127 0 0 1 5.5 16.898a5.778 5.778 0 0 0 4.252-1.189 2.879 2.879 0 0 1-2.684-1.995 2.88 2.88 0 0 0 1.298-.049c-1.381-.278-2.335-1.522-2.304-2.853.388.215.83.344 1.301.359a2.877 2.877 0 0 1-.889-3.835 8.153 8.153 0 0 0 5.92 3.001 2.876 2.876 0 0 1 4.895-2.62 5.73 5.73 0 0 0 1.824-.697 2.884 2.884 0 0 1-1.263 1.589 5.73 5.73 0 0 0 1.649-.453 5.765 5.765 0 0 1-1.433 1.489Z" fill="currentColor"/></symbol><symbol id="sensei-sprite-update" viewBox="0 0 24 24"><path fill-rule="evenodd" clip-rule="evenodd" d="m7.622 18.42-.634.433.406.598 2.78 4.102 1.268-.866-1.748-2.579c2.978.999 6.425.147 8.636-2.415 2.449-2.836 2.599-6.863.601-9.763l-1.026 1.188c1.4 2.325 1.203 5.408-.697 7.608-1.861 2.157-4.801 2.822-7.278 1.869l2.029-1.385.64-.438-.81-1.197-.641.438-3.526 2.407Zm8.813-12.424.634-.433-.405-.598-2.78-4.102-1.27.866 1.75 2.58c-2.979-1-6.426-.148-8.637 2.414-2.449 2.837-2.599 6.863-.601 9.763l1.026-1.188c-1.4-2.325-1.203-5.408.697-7.608 1.861-2.157 4.801-2.822 7.278-1.868l-2.029 1.384-.64.438.81 1.197.641-.438 3.526-2.407Z" fill="currentColor"/></symbol><symbol fill="none" id="sensei-sprite-woo-logo" viewBox="0 0 29 20"><path fill-rule="evenodd" clip-rule="evenodd" d="M3.901 2.263h20.877a2.36 2.36 0 0 1 1.69.71 2.426 2.426 0 0 1 .699 1.714v8.078a2.452 2.452 0 0 1-.7 1.712 2.384 2.384 0 0 1-1.689.71h-7.487l1.024 2.554-4.523-2.555H3.899c-.632 0-1.24-.256-1.686-.71a2.44 2.44 0 0 1-.7-1.711V4.687c0-.643.252-1.26.7-1.714a2.373 2.373 0 0 1 1.69-.71Z" fill="#7D57A4"/><path d="M2.806 4.457a.867.867 0 0 1 .657-.329c.532-.037.838.217.916.764.329 2.218.68 4.1 1.055 5.648l2.298-4.43c.208-.4.471-.612.789-.635.46-.033.748.264.863.892.216 1.24.549 2.457.992 3.634.276-2.7.737-4.65 1.383-5.854a.8.8 0 0 1 .693-.471.913.913 0 0 1 .66.21.817.817 0 0 1 .32.614.911.911 0 0 1-.1.512c-.41.77-.746 2.05-1.01 3.84-.26 1.73-.357 3.081-.289 4.056.024.24-.018.48-.122.697a.667.667 0 0 1-.558.384c-.277.02-.553-.112-.83-.394-.975-1.014-1.749-2.522-2.322-4.525a982.776 982.776 0 0 1-1.515 3.063c-.616 1.202-1.143 1.818-1.583 1.849-.285.02-.528-.223-.729-.73-.538-1.39-1.116-4.08-1.732-8.07a.922.922 0 0 1 .164-.724Zm22.535 1.672a2.456 2.456 0 0 0-.703-.804 2.415 2.415 0 0 0-.973-.425 2.766 2.766 0 0 0-.57-.061c-1.003 0-1.824.53-2.46 1.59a5.71 5.71 0 0 0-.815 2.995c0 .819.168 1.521.504 2.106a2.42 2.42 0 0 0 1.677 1.229c.187.04.378.062.569.062 1.014 0 1.834-.53 2.46-1.59a5.783 5.783 0 0 0 .816-3.012c0-.82-.168-1.516-.505-2.09Zm-1.323 2.95c-.143.696-.409 1.22-.797 1.573-.308.281-.59.395-.846.344-.257-.052-.462-.282-.617-.689a2.78 2.78 0 0 1-.185-.967 3.856 3.856 0 0 1 .077-.78c.1-.455.288-.884.553-1.264.349-.52.713-.738 1.093-.654.256.052.461.281.616.686.118.308.18.636.183.966.002.264-.024.527-.076.785Zm-5.246-2.95a2.456 2.456 0 0 0-.703-.804 2.415 2.415 0 0 0-.973-.425 2.765 2.765 0 0 0-.57-.061c-1.005 0-1.825.53-2.46 1.59a5.702 5.702 0 0 0-.816 2.995c0 .819.168 1.521.505 2.106.173.318.413.593.703.805.29.212.622.357.974.424.187.04.377.062.568.062 1.015 0 1.836-.53 2.462-1.59.544-.908.829-1.95.823-3.012 0-.82-.169-1.516-.505-2.09h-.008Zm-1.323 2.95c-.143.697-.41 1.223-.8 1.575-.308.281-.59.395-.846.344-.255-.052-.46-.282-.614-.69a2.782 2.782 0 0 1-.185-.968 3.856 3.856 0 0 1 .077-.78c.1-.454.289-.884.553-1.264.347-.518.711-.735 1.092-.652.257.052.462.281.615.686.119.308.181.636.185.966a3.85 3.85 0 0 1-.077.78v.003Z" fill="#fff"/></symbol></svg>